%TF.GenerationSoftware,KiCad,Pcbnew,10.0.5*%
%TF.CreationDate,2026-08-19T17:02:53+02:00*%
%TF.ProjectId,Macropad2,4d616372-6f70-4616-9432-2e6b69636164,rev?*%
%TF.SameCoordinates,Original*%
%TF.FileFunction,Profile,NP*%
%FSLAX46Y46*%
G04 Gerber Fmt 4.6, Leading zero omitted, Abs format (unit mm)*
G04 Created by KiCad (PCBNEW 10.0.5) date 2026-08-19 17:02:53*
%MOMM*%
%LPD*%
G01*
G04 APERTURE LIST*
%TA.AperFunction,Profile*%
%ADD10C,0.050000*%
%TD*%
%TA.AperFunction,Profile*%
%ADD11C,0.120000*%
%TD*%
G04 APERTURE END LIST*
D10*
X35000000Y-74000000D02*
G75*
G02*
X40000000Y-69000000I5000000J0D01*
G01*
X35000000Y-153250000D02*
X35000000Y-74000000D01*
X39850000Y-72250000D02*
G75*
G02*
X36650000Y-72250000I-1600000J0D01*
G01*
X36650000Y-72250000D02*
G75*
G02*
X39850000Y-72250000I1600000J0D01*
G01*
X39850000Y-155000000D02*
G75*
G02*
X36650000Y-155000000I-1600000J0D01*
G01*
X36650000Y-155000000D02*
G75*
G02*
X39850000Y-155000000I1600000J0D01*
G01*
X40000000Y-69000000D02*
X99250000Y-69000000D01*
X40000000Y-158250000D02*
G75*
G02*
X35000000Y-153250000I0J5000000D01*
G01*
X99250000Y-69000000D02*
G75*
G02*
X104250000Y-74000000I0J-5000000D01*
G01*
X99250000Y-158250000D02*
X40000000Y-158250000D01*
X102600000Y-72250000D02*
G75*
G02*
X99400000Y-72250000I-1600000J0D01*
G01*
X99400000Y-72250000D02*
G75*
G02*
X102600000Y-72250000I1600000J0D01*
G01*
X102600000Y-155000000D02*
G75*
G02*
X99400000Y-155000000I-1600000J0D01*
G01*
X99400000Y-155000000D02*
G75*
G02*
X102600000Y-155000000I1600000J0D01*
G01*
X104250000Y-74000000D02*
X104250000Y-153250000D01*
X104250000Y-153250000D02*
G75*
G02*
X99250000Y-158250000I-5000000J0D01*
G01*
%TO.C,D2*%
D11*
X88030000Y-98500000D02*
X88030000Y-97599647D01*
X88030000Y-98500000D02*
X88030000Y-99400353D01*
X89530000Y-96800000D02*
X88829647Y-96800000D01*
X89530000Y-96800000D02*
X90230353Y-96800000D01*
X89530000Y-100200000D02*
X88829647Y-100200000D01*
X89530000Y-100200000D02*
X90230353Y-100200000D01*
X91030000Y-98500000D02*
X91030000Y-97599647D01*
X91030000Y-98500000D02*
X91030000Y-99400353D01*
X87986066Y-97443345D02*
G75*
G02*
X88029976Y-97599647I-256066J-156255D01*
G01*
X87986066Y-97443345D02*
G75*
G02*
X88673345Y-96756066I426774J260505D01*
G01*
X88030000Y-99400353D02*
G75*
G02*
X87986066Y-99556655I-299992J-3D01*
G01*
X88673345Y-100243934D02*
G75*
G02*
X87986066Y-99556655I-260503J426776D01*
G01*
X88673345Y-100243934D02*
G75*
G02*
X88829647Y-100200000I156299J-256058D01*
G01*
X88829647Y-96800000D02*
G75*
G02*
X88673346Y-96756065I-87J299680D01*
G01*
X90230353Y-100200000D02*
G75*
G02*
X90386655Y-100243934I3J-299992D01*
G01*
X90386655Y-96756066D02*
G75*
G02*
X90230353Y-96799976I-156255J256066D01*
G01*
X90386655Y-96756066D02*
G75*
G02*
X91073934Y-97443345I260505J-426774D01*
G01*
X91030000Y-97599647D02*
G75*
G02*
X91073933Y-97443344I300020J-3D01*
G01*
X91073934Y-99556655D02*
G75*
G02*
X90386655Y-100243934I-426776J-260503D01*
G01*
X91073934Y-99556655D02*
G75*
G02*
X91030000Y-99400353I256058J156299D01*
G01*
%TO.C,D4*%
X77790000Y-98500000D02*
X77790000Y-97599647D01*
X77790000Y-98500000D02*
X77790000Y-99400353D01*
X79290000Y-96800000D02*
X78589647Y-96800000D01*
X79290000Y-96800000D02*
X79990353Y-96800000D01*
X79290000Y-100200000D02*
X78589647Y-100200000D01*
X79290000Y-100200000D02*
X79990353Y-100200000D01*
X80790000Y-98500000D02*
X80790000Y-97599647D01*
X80790000Y-98500000D02*
X80790000Y-99400353D01*
X77746066Y-97443345D02*
G75*
G02*
X77789976Y-97599647I-256066J-156255D01*
G01*
X77746066Y-97443345D02*
G75*
G02*
X78433345Y-96756066I426774J260505D01*
G01*
X77790000Y-99400353D02*
G75*
G02*
X77746066Y-99556655I-299992J-3D01*
G01*
X78433345Y-100243934D02*
G75*
G02*
X77746066Y-99556655I-260503J426776D01*
G01*
X78433345Y-100243934D02*
G75*
G02*
X78589647Y-100200000I156299J-256058D01*
G01*
X78589647Y-96800000D02*
G75*
G02*
X78433346Y-96756065I-87J299680D01*
G01*
X79990353Y-100200000D02*
G75*
G02*
X80146655Y-100243934I3J-299992D01*
G01*
X80146655Y-96756066D02*
G75*
G02*
X79990353Y-96799976I-156255J256066D01*
G01*
X80146655Y-96756066D02*
G75*
G02*
X80833934Y-97443345I260505J-426774D01*
G01*
X80790000Y-97599647D02*
G75*
G02*
X80833933Y-97443344I300020J-3D01*
G01*
X80833934Y-99556655D02*
G75*
G02*
X80146655Y-100243934I-426776J-260503D01*
G01*
X80833934Y-99556655D02*
G75*
G02*
X80790000Y-99400353I256058J156299D01*
G01*
%TO.C,D3*%
X82910000Y-98500000D02*
X82910000Y-97599647D01*
X82910000Y-98500000D02*
X82910000Y-99400353D01*
X84410000Y-96800000D02*
X83709647Y-96800000D01*
X84410000Y-96800000D02*
X85110353Y-96800000D01*
X84410000Y-100200000D02*
X83709647Y-100200000D01*
X84410000Y-100200000D02*
X85110353Y-100200000D01*
X85910000Y-98500000D02*
X85910000Y-97599647D01*
X85910000Y-98500000D02*
X85910000Y-99400353D01*
X82866066Y-97443345D02*
G75*
G02*
X82909976Y-97599647I-256066J-156255D01*
G01*
X82866066Y-97443345D02*
G75*
G02*
X83553345Y-96756066I426774J260505D01*
G01*
X82910000Y-99400353D02*
G75*
G02*
X82866066Y-99556655I-299992J-3D01*
G01*
X83553345Y-100243934D02*
G75*
G02*
X82866066Y-99556655I-260503J426776D01*
G01*
X83553345Y-100243934D02*
G75*
G02*
X83709647Y-100200000I156299J-256058D01*
G01*
X83709647Y-96800000D02*
G75*
G02*
X83553346Y-96756065I-87J299680D01*
G01*
X85110353Y-100200000D02*
G75*
G02*
X85266655Y-100243934I3J-299992D01*
G01*
X85266655Y-96756066D02*
G75*
G02*
X85110353Y-96799976I-156255J256066D01*
G01*
X85266655Y-96756066D02*
G75*
G02*
X85953934Y-97443345I260505J-426774D01*
G01*
X85910000Y-97599647D02*
G75*
G02*
X85953933Y-97443344I300020J-3D01*
G01*
X85953934Y-99556655D02*
G75*
G02*
X85266655Y-100243934I-426776J-260503D01*
G01*
X85953934Y-99556655D02*
G75*
G02*
X85910000Y-99400353I256058J156299D01*
G01*
%TO.C,D6*%
X67540000Y-98500000D02*
X67540000Y-97599647D01*
X67540000Y-98500000D02*
X67540000Y-99400353D01*
X69040000Y-96800000D02*
X68339647Y-96800000D01*
X69040000Y-96800000D02*
X69740353Y-96800000D01*
X69040000Y-100200000D02*
X68339647Y-100200000D01*
X69040000Y-100200000D02*
X69740353Y-100200000D01*
X70540000Y-98500000D02*
X70540000Y-97599647D01*
X70540000Y-98500000D02*
X70540000Y-99400353D01*
X67496066Y-97443345D02*
G75*
G02*
X67539976Y-97599647I-256066J-156255D01*
G01*
X67496066Y-97443345D02*
G75*
G02*
X68183345Y-96756066I426774J260505D01*
G01*
X67540000Y-99400353D02*
G75*
G02*
X67496066Y-99556655I-299992J-3D01*
G01*
X68183345Y-100243934D02*
G75*
G02*
X67496066Y-99556655I-260503J426776D01*
G01*
X68183345Y-100243934D02*
G75*
G02*
X68339647Y-100200000I156299J-256058D01*
G01*
X68339647Y-96800000D02*
G75*
G02*
X68183346Y-96756065I-87J299680D01*
G01*
X69740353Y-100200000D02*
G75*
G02*
X69896655Y-100243934I3J-299992D01*
G01*
X69896655Y-96756066D02*
G75*
G02*
X69740353Y-96799976I-156255J256066D01*
G01*
X69896655Y-96756066D02*
G75*
G02*
X70583934Y-97443345I260505J-426774D01*
G01*
X70540000Y-97599647D02*
G75*
G02*
X70583933Y-97443344I300020J-3D01*
G01*
X70583934Y-99556655D02*
G75*
G02*
X69896655Y-100243934I-426776J-260503D01*
G01*
X70583934Y-99556655D02*
G75*
G02*
X70540000Y-99400353I256058J156299D01*
G01*
%TO.C,D5*%
X72670000Y-98500000D02*
X72670000Y-97599647D01*
X72670000Y-98500000D02*
X72670000Y-99400353D01*
X74170000Y-96800000D02*
X73469647Y-96800000D01*
X74170000Y-96800000D02*
X74870353Y-96800000D01*
X74170000Y-100200000D02*
X73469647Y-100200000D01*
X74170000Y-100200000D02*
X74870353Y-100200000D01*
X75670000Y-98500000D02*
X75670000Y-97599647D01*
X75670000Y-98500000D02*
X75670000Y-99400353D01*
X72626066Y-97443345D02*
G75*
G02*
X72669976Y-97599647I-256066J-156255D01*
G01*
X72626066Y-97443345D02*
G75*
G02*
X73313345Y-96756066I426774J260505D01*
G01*
X72670000Y-99400353D02*
G75*
G02*
X72626066Y-99556655I-299992J-3D01*
G01*
X73313345Y-100243934D02*
G75*
G02*
X72626066Y-99556655I-260503J426776D01*
G01*
X73313345Y-100243934D02*
G75*
G02*
X73469647Y-100200000I156299J-256058D01*
G01*
X73469647Y-96800000D02*
G75*
G02*
X73313346Y-96756065I-87J299680D01*
G01*
X74870353Y-100200000D02*
G75*
G02*
X75026655Y-100243934I3J-299992D01*
G01*
X75026655Y-96756066D02*
G75*
G02*
X74870353Y-96799976I-156255J256066D01*
G01*
X75026655Y-96756066D02*
G75*
G02*
X75713934Y-97443345I260505J-426774D01*
G01*
X75670000Y-97599647D02*
G75*
G02*
X75713933Y-97443344I300020J-3D01*
G01*
X75713934Y-99556655D02*
G75*
G02*
X75026655Y-100243934I-426776J-260503D01*
G01*
X75713934Y-99556655D02*
G75*
G02*
X75670000Y-99400353I256058J156299D01*
G01*
%TO.C,D1*%
X93170000Y-98500000D02*
X93170000Y-97599647D01*
X93170000Y-98500000D02*
X93170000Y-99400353D01*
X94670000Y-96800000D02*
X93969647Y-96800000D01*
X94670000Y-96800000D02*
X95370353Y-96800000D01*
X94670000Y-100200000D02*
X93969647Y-100200000D01*
X94670000Y-100200000D02*
X95370353Y-100200000D01*
X96170000Y-98500000D02*
X96170000Y-97599647D01*
X96170000Y-98500000D02*
X96170000Y-99400353D01*
X93126066Y-97443345D02*
G75*
G02*
X93169976Y-97599647I-256066J-156255D01*
G01*
X93126066Y-97443345D02*
G75*
G02*
X93813345Y-96756066I426774J260505D01*
G01*
X93170000Y-99400353D02*
G75*
G02*
X93126066Y-99556655I-299992J-3D01*
G01*
X93813345Y-100243934D02*
G75*
G02*
X93126066Y-99556655I-260503J426776D01*
G01*
X93813345Y-100243934D02*
G75*
G02*
X93969647Y-100200000I156299J-256058D01*
G01*
X93969647Y-96800000D02*
G75*
G02*
X93813346Y-96756065I-87J299680D01*
G01*
X95370353Y-100200000D02*
G75*
G02*
X95526655Y-100243934I3J-299992D01*
G01*
X95526655Y-96756066D02*
G75*
G02*
X95370353Y-96799976I-156255J256066D01*
G01*
X95526655Y-96756066D02*
G75*
G02*
X96213934Y-97443345I260505J-426774D01*
G01*
X96170000Y-97599647D02*
G75*
G02*
X96213933Y-97443344I300020J-3D01*
G01*
X96213934Y-99556655D02*
G75*
G02*
X95526655Y-100243934I-426776J-260503D01*
G01*
X96213934Y-99556655D02*
G75*
G02*
X96170000Y-99400353I256058J156299D01*
G01*
%TD*%
M02*
