%TF.GenerationSoftware,KiCad,Pcbnew,10.0.5*%
%TF.CreationDate,2026-08-19T17:02:53+02:00*%
%TF.ProjectId,Macropad2,4d616372-6f70-4616-9432-2e6b69636164,rev?*%
%TF.SameCoordinates,Original*%
%TF.FileFunction,Soldermask,Bot*%
%TF.FilePolarity,Negative*%
%FSLAX46Y46*%
G04 Gerber Fmt 4.6, Leading zero omitted, Abs format (unit mm)*
G04 Created by KiCad (PCBNEW 10.0.5) date 2026-08-19 17:02:53*
%MOMM*%
%LPD*%
G01*
G04 APERTURE LIST*
G04 Aperture macros list*
%AMRoundRect*
0 Rectangle with rounded corners*
0 $1 Rounding radius*
0 $2 $3 $4 $5 $6 $7 $8 $9 X,Y pos of 4 corners*
0 Add a 4 corners polygon primitive as box body*
4,1,4,$2,$3,$4,$5,$6,$7,$8,$9,$2,$3,0*
0 Add four circle primitives for the rounded corners*
1,1,$1+$1,$2,$3*
1,1,$1+$1,$4,$5*
1,1,$1+$1,$6,$7*
1,1,$1+$1,$8,$9*
0 Add four rect primitives between the rounded corners*
20,1,$1+$1,$2,$3,$4,$5,0*
20,1,$1+$1,$4,$5,$6,$7,0*
20,1,$1+$1,$6,$7,$8,$9,0*
20,1,$1+$1,$8,$9,$2,$3,0*%
G04 Aperture macros list end*
%ADD10RoundRect,0.250000X-0.550000X0.550000X-0.550000X-0.550000X0.550000X-0.550000X0.550000X0.550000X0*%
%ADD11C,1.600000*%
%ADD12R,2.000000X2.000000*%
%ADD13C,2.000000*%
%ADD14R,3.200000X2.000000*%
%ADD15C,1.700000*%
%ADD16C,4.000000*%
%ADD17C,2.200000*%
%ADD18RoundRect,0.170000X0.680000X-0.680000X0.680000X0.680000X-0.680000X0.680000X-0.680000X-0.680000X0*%
%ADD19RoundRect,0.205000X0.205000X-0.470000X0.205000X0.470000X-0.205000X0.470000X-0.205000X-0.470000X0*%
%ADD20R,3.500000X1.700000*%
%ADD21O,3.600000X1.700000*%
%ADD22O,3.700000X1.700000*%
G04 APERTURE END LIST*
D10*
%TO.C,D7*%
X69150000Y-103330000D03*
D11*
X69150000Y-110950000D03*
%TD*%
D12*
%TO.C,SW1*%
X81250000Y-79000000D03*
D13*
X81250000Y-84000000D03*
X81250000Y-81500000D03*
D14*
X88750000Y-75900000D03*
X88750000Y-87100000D03*
D13*
X95750000Y-84000000D03*
X95750000Y-79000000D03*
%TD*%
D15*
%TO.C,SW4*%
X83640000Y-123640000D03*
D16*
X88720000Y-123640000D03*
D15*
X93800000Y-123640000D03*
D17*
X91260000Y-118560000D03*
X84910000Y-121100000D03*
%TD*%
D10*
%TO.C,D9*%
X79300000Y-103290000D03*
D11*
X79300000Y-110910000D03*
%TD*%
D18*
%TO.C,U2*%
X42000000Y-86250000D03*
D15*
X42000000Y-83710000D03*
X42000000Y-81170000D03*
X42000000Y-78630000D03*
%TD*%
%TO.C,SW2*%
X45380000Y-123650000D03*
D16*
X50460000Y-123650000D03*
D15*
X55540000Y-123650000D03*
D17*
X53000000Y-118570000D03*
X46650000Y-121110000D03*
%TD*%
D15*
%TO.C,SW7*%
X83630000Y-142780000D03*
D16*
X88710000Y-142780000D03*
D15*
X93790000Y-142780000D03*
D17*
X91250000Y-137700000D03*
X84900000Y-140240000D03*
%TD*%
D10*
%TO.C,D12*%
X94750000Y-103290000D03*
D11*
X94750000Y-110910000D03*
%TD*%
D15*
%TO.C,SW6*%
X64510000Y-123640000D03*
D16*
X69590000Y-123640000D03*
D15*
X74670000Y-123640000D03*
D17*
X72130000Y-118560000D03*
X65780000Y-121100000D03*
%TD*%
D15*
%TO.C,SW3*%
X64480000Y-142780000D03*
D16*
X69560000Y-142780000D03*
D15*
X74640000Y-142780000D03*
D17*
X72100000Y-137700000D03*
X65750000Y-140240000D03*
%TD*%
D10*
%TO.C,D11*%
X74200000Y-103290000D03*
D11*
X74200000Y-110910000D03*
%TD*%
D10*
%TO.C,D8*%
X89610000Y-103290000D03*
D11*
X89610000Y-110910000D03*
%TD*%
D10*
%TO.C,D10*%
X84450000Y-103290000D03*
D11*
X84450000Y-110910000D03*
%TD*%
D15*
%TO.C,SW5*%
X45390000Y-142780000D03*
D16*
X50470000Y-142780000D03*
D15*
X55550000Y-142780000D03*
D17*
X53010000Y-137700000D03*
X46660000Y-140240000D03*
%TD*%
D19*
%TO.C,D2*%
X88780000Y-101225000D03*
X90280000Y-101225000D03*
X90280000Y-95775000D03*
X88780000Y-95775000D03*
%TD*%
%TO.C,D4*%
X78540000Y-101225000D03*
X80040000Y-101225000D03*
X80040000Y-95775000D03*
X78540000Y-95775000D03*
%TD*%
D20*
%TO.C,U1*%
X61750000Y-94260000D03*
D21*
X61750000Y-96800000D03*
X61750000Y-99340000D03*
X61750000Y-101880000D03*
X61750000Y-104420000D03*
X61750000Y-106960000D03*
X61750000Y-109500000D03*
X44500000Y-109500000D03*
X44500000Y-106960000D03*
X44500000Y-104420000D03*
D22*
X44500000Y-101880000D03*
X44500000Y-99340000D03*
X44500000Y-96800000D03*
X44500000Y-94260000D03*
%TD*%
D19*
%TO.C,D3*%
X83660000Y-101225000D03*
X85160000Y-101225000D03*
X85160000Y-95775000D03*
X83660000Y-95775000D03*
%TD*%
%TO.C,D6*%
X68290000Y-101225000D03*
X69790000Y-101225000D03*
X69790000Y-95775000D03*
X68290000Y-95775000D03*
%TD*%
%TO.C,D5*%
X73420000Y-101225000D03*
X74920000Y-101225000D03*
X74920000Y-95775000D03*
X73420000Y-95775000D03*
%TD*%
%TO.C,D1*%
X93920000Y-101225000D03*
X95420000Y-101225000D03*
X95420000Y-95775000D03*
X93920000Y-95775000D03*
%TD*%
M02*
