M48
; DRILL file KiCad 10.0.5 date 2026-08-19T17:02:27
; FORMAT={-:-/ absolute / metric / decimal}
; #@! TF.CreationDate,2026-08-19T17:02:27+02:00
; #@! TF.GenerationSoftware,Kicad,Pcbnew,10.0.5
; #@! TF.FileFunction,Plated,1,2,PTH
FMAT,2
METRIC
; #@! TA.AperFunction,Plated,PTH,ViaDrill
T1C0.300
; #@! TA.AperFunction,Plated,PTH,ComponentDrill
T2C0.800
; #@! TA.AperFunction,Plated,PTH,ComponentDrill
T3C1.000
; #@! TA.AperFunction,Plated,PTH,ComponentDrill
T4C1.500
%
G90
G05
T1
X54.25Y-96.5
X64.75Y-91.0
X69.75Y-93.0
X75.85Y-91.5
T2
X69.15Y-103.33
X69.15Y-110.95
X74.2Y-103.29
X74.2Y-110.91
X79.3Y-103.29
X79.3Y-110.91
X84.45Y-103.29
X84.45Y-110.91
X89.61Y-103.29
X89.61Y-110.91
X94.75Y-103.29
X94.75Y-110.91
T3
X42.0Y-78.63
X42.0Y-81.17
X42.0Y-83.71
X42.0Y-86.25
X45.5Y-94.26
X45.5Y-96.8
X45.5Y-99.34
X45.5Y-101.88
X45.5Y-104.42
X45.5Y-106.96
X45.5Y-109.5
X60.75Y-94.26
X60.75Y-96.8
X60.75Y-99.34
X60.75Y-101.88
X60.75Y-104.42
X60.75Y-106.96
X60.75Y-109.5
X81.25Y-79.0
X81.25Y-81.5
X81.25Y-84.0
X95.75Y-79.0
X95.75Y-84.0
T4
X46.65Y-121.11
X46.66Y-140.24
X53.0Y-118.57
X53.01Y-137.7
X65.75Y-140.24
X65.78Y-121.1
X72.1Y-137.7
X72.13Y-118.56
X84.9Y-140.24
X84.91Y-121.1
X91.25Y-137.7
X91.26Y-118.56
T4
G00X88.1Y-75.9
M15
G01X89.4Y-75.9
M16
G05
G00X88.1Y-87.1
M15
G01X89.4Y-87.1
M16
G05
M30
