%TF.GenerationSoftware,KiCad,Pcbnew,10.0.5*%
%TF.CreationDate,2026-08-19T17:02:53+02:00*%
%TF.ProjectId,Macropad2,4d616372-6f70-4616-9432-2e6b69636164,rev?*%
%TF.SameCoordinates,Original*%
%TF.FileFunction,Legend,Top*%
%TF.FilePolarity,Positive*%
%FSLAX46Y46*%
G04 Gerber Fmt 4.6, Leading zero omitted, Abs format (unit mm)*
G04 Created by KiCad (PCBNEW 10.0.5) date 2026-08-19 17:02:53*
%MOMM*%
%LPD*%
G01*
G04 APERTURE LIST*
G04 Aperture macros list*
%AMRoundRect*
0 Rectangle with rounded corners*
0 $1 Rounding radius*
0 $2 $3 $4 $5 $6 $7 $8 $9 X,Y pos of 4 corners*
0 Add a 4 corners polygon primitive as box body*
4,1,4,$2,$3,$4,$5,$6,$7,$8,$9,$2,$3,0*
0 Add four circle primitives for the rounded corners*
1,1,$1+$1,$2,$3*
1,1,$1+$1,$4,$5*
1,1,$1+$1,$6,$7*
1,1,$1+$1,$8,$9*
0 Add four rect primitives between the rounded corners*
20,1,$1+$1,$2,$3,$4,$5,0*
20,1,$1+$1,$4,$5,$6,$7,0*
20,1,$1+$1,$6,$7,$8,$9,0*
20,1,$1+$1,$8,$9,$2,$3,0*%
G04 Aperture macros list end*
%ADD10C,0.250000*%
%ADD11C,0.360000*%
%ADD12C,0.150000*%
%ADD13C,0.120000*%
%ADD14RoundRect,0.250000X-0.550000X0.550000X-0.550000X-0.550000X0.550000X-0.550000X0.550000X0.550000X0*%
%ADD15C,1.600000*%
%ADD16R,2.000000X2.000000*%
%ADD17C,2.000000*%
%ADD18R,3.200000X2.000000*%
%ADD19C,1.700000*%
%ADD20C,4.000000*%
%ADD21C,2.200000*%
%ADD22RoundRect,0.170000X0.680000X-0.680000X0.680000X0.680000X-0.680000X0.680000X-0.680000X-0.680000X0*%
%ADD23R,3.500000X1.700000*%
%ADD24O,3.600000X1.700000*%
%ADD25O,3.700000X1.700000*%
G04 APERTURE END LIST*
D10*
G36*
X52512000Y-110372388D02*
G01*
X51727418Y-110244234D01*
X52004390Y-109956155D01*
X51728017Y-109575454D01*
X52512000Y-109703474D01*
X52512000Y-109387991D01*
X51130562Y-109162311D01*
X51682111Y-109904303D01*
X51131160Y-110466086D01*
X52512000Y-110691632D01*
X52512000Y-110372388D01*
G37*
G36*
X52512000Y-107904747D02*
G01*
X52512000Y-108253880D01*
X51926256Y-108158168D01*
X51926256Y-108645799D01*
X52512000Y-108741511D01*
X52512000Y-109082248D01*
X51133297Y-108857038D01*
X51133297Y-108553243D01*
X51340855Y-108553243D01*
X51718699Y-108614969D01*
X51718699Y-108131973D01*
X51340855Y-108070246D01*
X51340855Y-108553243D01*
X51133297Y-108553243D01*
X51133297Y-107679537D01*
X52512000Y-107904747D01*
G37*
G36*
X52304442Y-107291515D02*
G01*
X51340855Y-107134076D01*
X51340855Y-106405921D01*
X51133297Y-106234377D01*
X51133297Y-107428333D01*
X52512000Y-107653544D01*
X52512000Y-106597212D01*
X52304442Y-106424123D01*
X52304442Y-107291515D01*
G37*
G36*
X51871546Y-105360806D02*
G01*
X51871546Y-105027860D01*
X51133297Y-104907295D01*
X51133297Y-106122611D01*
X52512000Y-106347821D01*
X52512000Y-106023876D01*
X51340855Y-105832585D01*
X51340855Y-105256697D01*
X51663988Y-105309490D01*
X51663988Y-105843869D01*
X52512000Y-105411785D01*
X52512000Y-105033838D01*
X51871546Y-105360806D01*
G37*
G36*
X52512000Y-103708771D02*
G01*
X52512000Y-104542983D01*
X52131591Y-104848860D01*
X51133297Y-104685779D01*
X51133297Y-104400455D01*
X51340855Y-104400455D01*
X52041832Y-104514907D01*
X52304442Y-104379566D01*
X52304442Y-103994096D01*
X51340855Y-103836657D01*
X51340855Y-104400455D01*
X51133297Y-104400455D01*
X51133297Y-103483561D01*
X52512000Y-103708771D01*
G37*
G36*
X52025077Y-102174077D02*
G01*
X52025077Y-103028103D01*
X52512000Y-103107629D01*
X52512000Y-103426872D01*
X51133297Y-103201662D01*
X51133297Y-102919360D01*
X51340855Y-102919360D01*
X51817519Y-102997206D01*
X51817519Y-102459335D01*
X51340855Y-102381489D01*
X51340855Y-102919360D01*
X51133297Y-102919360D01*
X51133297Y-102028393D01*
X52025077Y-102174077D01*
G37*
G36*
X52512000Y-100911879D02*
G01*
X52512000Y-101261012D01*
X51926256Y-101165300D01*
X51926256Y-101652930D01*
X52512000Y-101748643D01*
X52512000Y-102089380D01*
X51133297Y-101864170D01*
X51133297Y-101560375D01*
X51340855Y-101560375D01*
X51718699Y-101622101D01*
X51718699Y-101139105D01*
X51340855Y-101077378D01*
X51340855Y-101560375D01*
X51133297Y-101560375D01*
X51133297Y-100686669D01*
X52512000Y-100911879D01*
G37*
G36*
X52512000Y-99715437D02*
G01*
X52512000Y-100660676D01*
X51133297Y-100435465D01*
X51133297Y-99833987D01*
X51340855Y-99833987D01*
X51340855Y-100150141D01*
X52304442Y-100307580D01*
X52304442Y-99991896D01*
X51824102Y-99673525D01*
X51340855Y-99833987D01*
X51133297Y-99833987D01*
X51133297Y-99579693D01*
X51824957Y-99356834D01*
X52512000Y-99715437D01*
G37*
G36*
X51133297Y-98638351D02*
G01*
X51133297Y-98325085D01*
X52045764Y-98127480D01*
X51133297Y-97633401D01*
X51133297Y-97319262D01*
X52512000Y-98104039D01*
X52512000Y-98304129D01*
X51133297Y-98638351D01*
G37*
G36*
X52304442Y-96137664D02*
G01*
X52304442Y-96966637D01*
X51926256Y-96904776D01*
X51926256Y-96085409D01*
X51353336Y-95991845D01*
X51133297Y-96100387D01*
X51133297Y-97120785D01*
X51340855Y-97081693D01*
X51340855Y-96375368D01*
X51438906Y-96325060D01*
X51718699Y-96370733D01*
X51718699Y-97241080D01*
X52512000Y-97370645D01*
X52512000Y-96276700D01*
X52304442Y-96137664D01*
G37*
G36*
X52512000Y-95968203D02*
G01*
X52216563Y-95919977D01*
X52216563Y-95701215D01*
X52512000Y-95749440D01*
X52512000Y-95968203D01*
G37*
G36*
X52677157Y-95465594D02*
G01*
X52277343Y-95081064D01*
X51133297Y-94894206D01*
X51133297Y-95464385D01*
X51315893Y-95243271D01*
X52677157Y-95465594D01*
G37*
D11*
G36*
X49412896Y-108634017D02*
G01*
X49412896Y-109936222D01*
X49293094Y-110001728D01*
X48648538Y-109881048D01*
X48529713Y-109771798D01*
X48529713Y-109393600D01*
X48748555Y-109393600D01*
X48748555Y-109558684D01*
X48808150Y-109614848D01*
X49135680Y-109676177D01*
X49194054Y-109642875D01*
X49194054Y-109477791D01*
X49134459Y-109421627D01*
X48806929Y-109360298D01*
X48748555Y-109393600D01*
X48529713Y-109393600D01*
X48529713Y-109101022D01*
X48649759Y-109034747D01*
X49194054Y-109136632D01*
X49194054Y-108958030D01*
X48438977Y-108816796D01*
X48279609Y-108908351D01*
X48279609Y-109868958D01*
X48440321Y-110027667D01*
X49499113Y-110225724D01*
X49663489Y-110128893D01*
X49663489Y-108816577D01*
X49960000Y-108644019D01*
X49960000Y-110440266D01*
X49642606Y-110617550D01*
X48301835Y-110366627D01*
X47990425Y-110072620D01*
X47990425Y-108599726D01*
X48303056Y-108426289D01*
X49412896Y-108634017D01*
G37*
G36*
X47990425Y-105894638D02*
G01*
X47990425Y-108073810D01*
X48286936Y-107904110D01*
X48286936Y-107285211D01*
X49960000Y-107598232D01*
X49960000Y-107026924D01*
X48286936Y-106713902D01*
X48286936Y-106175566D01*
X47990425Y-105894638D01*
G37*
G36*
X49663489Y-105396200D02*
G01*
X49123712Y-105295083D01*
X49123712Y-103986943D01*
X48827201Y-103931549D01*
X48827201Y-105239689D01*
X48286936Y-105138572D01*
X48286936Y-103935725D01*
X47990425Y-103654577D01*
X47990425Y-105605467D01*
X49960000Y-105973993D01*
X49960000Y-104028928D01*
X49663489Y-104201816D01*
X49663489Y-105396200D01*
G37*
G36*
X47990425Y-101636753D02*
G01*
X47990425Y-102152997D01*
X49046531Y-102350614D01*
X47987128Y-103473447D01*
X49960000Y-103842632D01*
X49960000Y-103320233D01*
X48895711Y-103121078D01*
X49963419Y-102005938D01*
X47990425Y-101636753D01*
G37*
G36*
X48826713Y-99518251D02*
G01*
X48826713Y-100887391D01*
X48428230Y-100812873D01*
X48286936Y-100677355D01*
X48286936Y-99682016D01*
X47990425Y-99403946D01*
X47990425Y-101065664D01*
X48303545Y-101360881D01*
X49123224Y-101514204D01*
X49123224Y-100151878D01*
X49545153Y-100230903D01*
X49663489Y-100342461D01*
X49663489Y-101572016D01*
X49960000Y-101398579D01*
X49960000Y-100121104D01*
X49661413Y-99674433D01*
X48826713Y-99518251D01*
G37*
G36*
X49960000Y-97524717D02*
G01*
X49960000Y-98889790D01*
X49416559Y-99390317D01*
X47990425Y-99123457D01*
X47990425Y-98656563D01*
X48286936Y-98656563D01*
X49288332Y-98843848D01*
X49663489Y-98622381D01*
X49663489Y-97991612D01*
X48286936Y-97733984D01*
X48286936Y-98656563D01*
X47990425Y-98656563D01*
X47990425Y-97156191D01*
X49960000Y-97524717D01*
G37*
G36*
X49045066Y-95448311D02*
G01*
X49045066Y-94903490D01*
X47990425Y-94706203D01*
X47990425Y-96694902D01*
X49960000Y-97063428D01*
X49960000Y-96533335D01*
X48286936Y-96220314D01*
X48286936Y-95277951D01*
X48748555Y-95364340D01*
X48748555Y-96238778D01*
X49960000Y-95531732D01*
X49960000Y-94913272D01*
X49045066Y-95448311D01*
G37*
D12*
X71724819Y-107878094D02*
X70724819Y-107878094D01*
X70724819Y-107878094D02*
X70724819Y-107639999D01*
X70724819Y-107639999D02*
X70772438Y-107497142D01*
X70772438Y-107497142D02*
X70867676Y-107401904D01*
X70867676Y-107401904D02*
X70962914Y-107354285D01*
X70962914Y-107354285D02*
X71153390Y-107306666D01*
X71153390Y-107306666D02*
X71296247Y-107306666D01*
X71296247Y-107306666D02*
X71486723Y-107354285D01*
X71486723Y-107354285D02*
X71581961Y-107401904D01*
X71581961Y-107401904D02*
X71677200Y-107497142D01*
X71677200Y-107497142D02*
X71724819Y-107639999D01*
X71724819Y-107639999D02*
X71724819Y-107878094D01*
X70724819Y-106973332D02*
X70724819Y-106306666D01*
X70724819Y-106306666D02*
X71724819Y-106735237D01*
X71404819Y-103591904D02*
X70404819Y-103591904D01*
X71404819Y-103020476D02*
X70833390Y-103449047D01*
X70404819Y-103020476D02*
X70976247Y-103591904D01*
X82716667Y-74707200D02*
X82859524Y-74754819D01*
X82859524Y-74754819D02*
X83097619Y-74754819D01*
X83097619Y-74754819D02*
X83192857Y-74707200D01*
X83192857Y-74707200D02*
X83240476Y-74659580D01*
X83240476Y-74659580D02*
X83288095Y-74564342D01*
X83288095Y-74564342D02*
X83288095Y-74469104D01*
X83288095Y-74469104D02*
X83240476Y-74373866D01*
X83240476Y-74373866D02*
X83192857Y-74326247D01*
X83192857Y-74326247D02*
X83097619Y-74278628D01*
X83097619Y-74278628D02*
X82907143Y-74231009D01*
X82907143Y-74231009D02*
X82811905Y-74183390D01*
X82811905Y-74183390D02*
X82764286Y-74135771D01*
X82764286Y-74135771D02*
X82716667Y-74040533D01*
X82716667Y-74040533D02*
X82716667Y-73945295D01*
X82716667Y-73945295D02*
X82764286Y-73850057D01*
X82764286Y-73850057D02*
X82811905Y-73802438D01*
X82811905Y-73802438D02*
X82907143Y-73754819D01*
X82907143Y-73754819D02*
X83145238Y-73754819D01*
X83145238Y-73754819D02*
X83288095Y-73802438D01*
X83621429Y-73754819D02*
X83859524Y-74754819D01*
X83859524Y-74754819D02*
X84050000Y-74040533D01*
X84050000Y-74040533D02*
X84240476Y-74754819D01*
X84240476Y-74754819D02*
X84478572Y-73754819D01*
X85383333Y-74754819D02*
X84811905Y-74754819D01*
X85097619Y-74754819D02*
X85097619Y-73754819D01*
X85097619Y-73754819D02*
X85002381Y-73897676D01*
X85002381Y-73897676D02*
X84907143Y-73992914D01*
X84907143Y-73992914D02*
X84811905Y-74040533D01*
X87386667Y-116173200D02*
X87529524Y-116220819D01*
X87529524Y-116220819D02*
X87767619Y-116220819D01*
X87767619Y-116220819D02*
X87862857Y-116173200D01*
X87862857Y-116173200D02*
X87910476Y-116125580D01*
X87910476Y-116125580D02*
X87958095Y-116030342D01*
X87958095Y-116030342D02*
X87958095Y-115935104D01*
X87958095Y-115935104D02*
X87910476Y-115839866D01*
X87910476Y-115839866D02*
X87862857Y-115792247D01*
X87862857Y-115792247D02*
X87767619Y-115744628D01*
X87767619Y-115744628D02*
X87577143Y-115697009D01*
X87577143Y-115697009D02*
X87481905Y-115649390D01*
X87481905Y-115649390D02*
X87434286Y-115601771D01*
X87434286Y-115601771D02*
X87386667Y-115506533D01*
X87386667Y-115506533D02*
X87386667Y-115411295D01*
X87386667Y-115411295D02*
X87434286Y-115316057D01*
X87434286Y-115316057D02*
X87481905Y-115268438D01*
X87481905Y-115268438D02*
X87577143Y-115220819D01*
X87577143Y-115220819D02*
X87815238Y-115220819D01*
X87815238Y-115220819D02*
X87958095Y-115268438D01*
X88291429Y-115220819D02*
X88529524Y-116220819D01*
X88529524Y-116220819D02*
X88720000Y-115506533D01*
X88720000Y-115506533D02*
X88910476Y-116220819D01*
X88910476Y-116220819D02*
X89148572Y-115220819D01*
X89958095Y-115554152D02*
X89958095Y-116220819D01*
X89720000Y-115173200D02*
X89481905Y-115887485D01*
X89481905Y-115887485D02*
X90100952Y-115887485D01*
X81874819Y-107838094D02*
X80874819Y-107838094D01*
X80874819Y-107838094D02*
X80874819Y-107599999D01*
X80874819Y-107599999D02*
X80922438Y-107457142D01*
X80922438Y-107457142D02*
X81017676Y-107361904D01*
X81017676Y-107361904D02*
X81112914Y-107314285D01*
X81112914Y-107314285D02*
X81303390Y-107266666D01*
X81303390Y-107266666D02*
X81446247Y-107266666D01*
X81446247Y-107266666D02*
X81636723Y-107314285D01*
X81636723Y-107314285D02*
X81731961Y-107361904D01*
X81731961Y-107361904D02*
X81827200Y-107457142D01*
X81827200Y-107457142D02*
X81874819Y-107599999D01*
X81874819Y-107599999D02*
X81874819Y-107838094D01*
X81874819Y-106790475D02*
X81874819Y-106599999D01*
X81874819Y-106599999D02*
X81827200Y-106504761D01*
X81827200Y-106504761D02*
X81779580Y-106457142D01*
X81779580Y-106457142D02*
X81636723Y-106361904D01*
X81636723Y-106361904D02*
X81446247Y-106314285D01*
X81446247Y-106314285D02*
X81065295Y-106314285D01*
X81065295Y-106314285D02*
X80970057Y-106361904D01*
X80970057Y-106361904D02*
X80922438Y-106409523D01*
X80922438Y-106409523D02*
X80874819Y-106504761D01*
X80874819Y-106504761D02*
X80874819Y-106695237D01*
X80874819Y-106695237D02*
X80922438Y-106790475D01*
X80922438Y-106790475D02*
X80970057Y-106838094D01*
X80970057Y-106838094D02*
X81065295Y-106885713D01*
X81065295Y-106885713D02*
X81303390Y-106885713D01*
X81303390Y-106885713D02*
X81398628Y-106838094D01*
X81398628Y-106838094D02*
X81446247Y-106790475D01*
X81446247Y-106790475D02*
X81493866Y-106695237D01*
X81493866Y-106695237D02*
X81493866Y-106504761D01*
X81493866Y-106504761D02*
X81446247Y-106409523D01*
X81446247Y-106409523D02*
X81398628Y-106361904D01*
X81398628Y-106361904D02*
X81303390Y-106314285D01*
X81554819Y-103551904D02*
X80554819Y-103551904D01*
X81554819Y-102980476D02*
X80983390Y-103409047D01*
X80554819Y-102980476D02*
X81126247Y-103551904D01*
X44454819Y-83261904D02*
X45264342Y-83261904D01*
X45264342Y-83261904D02*
X45359580Y-83214285D01*
X45359580Y-83214285D02*
X45407200Y-83166666D01*
X45407200Y-83166666D02*
X45454819Y-83071428D01*
X45454819Y-83071428D02*
X45454819Y-82880952D01*
X45454819Y-82880952D02*
X45407200Y-82785714D01*
X45407200Y-82785714D02*
X45359580Y-82738095D01*
X45359580Y-82738095D02*
X45264342Y-82690476D01*
X45264342Y-82690476D02*
X44454819Y-82690476D01*
X44550057Y-82261904D02*
X44502438Y-82214285D01*
X44502438Y-82214285D02*
X44454819Y-82119047D01*
X44454819Y-82119047D02*
X44454819Y-81880952D01*
X44454819Y-81880952D02*
X44502438Y-81785714D01*
X44502438Y-81785714D02*
X44550057Y-81738095D01*
X44550057Y-81738095D02*
X44645295Y-81690476D01*
X44645295Y-81690476D02*
X44740533Y-81690476D01*
X44740533Y-81690476D02*
X44883390Y-81738095D01*
X44883390Y-81738095D02*
X45454819Y-82309523D01*
X45454819Y-82309523D02*
X45454819Y-81690476D01*
X49126667Y-116183200D02*
X49269524Y-116230819D01*
X49269524Y-116230819D02*
X49507619Y-116230819D01*
X49507619Y-116230819D02*
X49602857Y-116183200D01*
X49602857Y-116183200D02*
X49650476Y-116135580D01*
X49650476Y-116135580D02*
X49698095Y-116040342D01*
X49698095Y-116040342D02*
X49698095Y-115945104D01*
X49698095Y-115945104D02*
X49650476Y-115849866D01*
X49650476Y-115849866D02*
X49602857Y-115802247D01*
X49602857Y-115802247D02*
X49507619Y-115754628D01*
X49507619Y-115754628D02*
X49317143Y-115707009D01*
X49317143Y-115707009D02*
X49221905Y-115659390D01*
X49221905Y-115659390D02*
X49174286Y-115611771D01*
X49174286Y-115611771D02*
X49126667Y-115516533D01*
X49126667Y-115516533D02*
X49126667Y-115421295D01*
X49126667Y-115421295D02*
X49174286Y-115326057D01*
X49174286Y-115326057D02*
X49221905Y-115278438D01*
X49221905Y-115278438D02*
X49317143Y-115230819D01*
X49317143Y-115230819D02*
X49555238Y-115230819D01*
X49555238Y-115230819D02*
X49698095Y-115278438D01*
X50031429Y-115230819D02*
X50269524Y-116230819D01*
X50269524Y-116230819D02*
X50460000Y-115516533D01*
X50460000Y-115516533D02*
X50650476Y-116230819D01*
X50650476Y-116230819D02*
X50888572Y-115230819D01*
X51221905Y-115326057D02*
X51269524Y-115278438D01*
X51269524Y-115278438D02*
X51364762Y-115230819D01*
X51364762Y-115230819D02*
X51602857Y-115230819D01*
X51602857Y-115230819D02*
X51698095Y-115278438D01*
X51698095Y-115278438D02*
X51745714Y-115326057D01*
X51745714Y-115326057D02*
X51793333Y-115421295D01*
X51793333Y-115421295D02*
X51793333Y-115516533D01*
X51793333Y-115516533D02*
X51745714Y-115659390D01*
X51745714Y-115659390D02*
X51174286Y-116230819D01*
X51174286Y-116230819D02*
X51793333Y-116230819D01*
X87376667Y-135313200D02*
X87519524Y-135360819D01*
X87519524Y-135360819D02*
X87757619Y-135360819D01*
X87757619Y-135360819D02*
X87852857Y-135313200D01*
X87852857Y-135313200D02*
X87900476Y-135265580D01*
X87900476Y-135265580D02*
X87948095Y-135170342D01*
X87948095Y-135170342D02*
X87948095Y-135075104D01*
X87948095Y-135075104D02*
X87900476Y-134979866D01*
X87900476Y-134979866D02*
X87852857Y-134932247D01*
X87852857Y-134932247D02*
X87757619Y-134884628D01*
X87757619Y-134884628D02*
X87567143Y-134837009D01*
X87567143Y-134837009D02*
X87471905Y-134789390D01*
X87471905Y-134789390D02*
X87424286Y-134741771D01*
X87424286Y-134741771D02*
X87376667Y-134646533D01*
X87376667Y-134646533D02*
X87376667Y-134551295D01*
X87376667Y-134551295D02*
X87424286Y-134456057D01*
X87424286Y-134456057D02*
X87471905Y-134408438D01*
X87471905Y-134408438D02*
X87567143Y-134360819D01*
X87567143Y-134360819D02*
X87805238Y-134360819D01*
X87805238Y-134360819D02*
X87948095Y-134408438D01*
X88281429Y-134360819D02*
X88519524Y-135360819D01*
X88519524Y-135360819D02*
X88710000Y-134646533D01*
X88710000Y-134646533D02*
X88900476Y-135360819D01*
X88900476Y-135360819D02*
X89138572Y-134360819D01*
X89424286Y-134360819D02*
X90090952Y-134360819D01*
X90090952Y-134360819D02*
X89662381Y-135360819D01*
X97324819Y-108314285D02*
X96324819Y-108314285D01*
X96324819Y-108314285D02*
X96324819Y-108076190D01*
X96324819Y-108076190D02*
X96372438Y-107933333D01*
X96372438Y-107933333D02*
X96467676Y-107838095D01*
X96467676Y-107838095D02*
X96562914Y-107790476D01*
X96562914Y-107790476D02*
X96753390Y-107742857D01*
X96753390Y-107742857D02*
X96896247Y-107742857D01*
X96896247Y-107742857D02*
X97086723Y-107790476D01*
X97086723Y-107790476D02*
X97181961Y-107838095D01*
X97181961Y-107838095D02*
X97277200Y-107933333D01*
X97277200Y-107933333D02*
X97324819Y-108076190D01*
X97324819Y-108076190D02*
X97324819Y-108314285D01*
X97324819Y-106790476D02*
X97324819Y-107361904D01*
X97324819Y-107076190D02*
X96324819Y-107076190D01*
X96324819Y-107076190D02*
X96467676Y-107171428D01*
X96467676Y-107171428D02*
X96562914Y-107266666D01*
X96562914Y-107266666D02*
X96610533Y-107361904D01*
X96420057Y-106409523D02*
X96372438Y-106361904D01*
X96372438Y-106361904D02*
X96324819Y-106266666D01*
X96324819Y-106266666D02*
X96324819Y-106028571D01*
X96324819Y-106028571D02*
X96372438Y-105933333D01*
X96372438Y-105933333D02*
X96420057Y-105885714D01*
X96420057Y-105885714D02*
X96515295Y-105838095D01*
X96515295Y-105838095D02*
X96610533Y-105838095D01*
X96610533Y-105838095D02*
X96753390Y-105885714D01*
X96753390Y-105885714D02*
X97324819Y-106457142D01*
X97324819Y-106457142D02*
X97324819Y-105838095D01*
X97004819Y-103551904D02*
X96004819Y-103551904D01*
X97004819Y-102980476D02*
X96433390Y-103409047D01*
X96004819Y-102980476D02*
X96576247Y-103551904D01*
X68256667Y-116173200D02*
X68399524Y-116220819D01*
X68399524Y-116220819D02*
X68637619Y-116220819D01*
X68637619Y-116220819D02*
X68732857Y-116173200D01*
X68732857Y-116173200D02*
X68780476Y-116125580D01*
X68780476Y-116125580D02*
X68828095Y-116030342D01*
X68828095Y-116030342D02*
X68828095Y-115935104D01*
X68828095Y-115935104D02*
X68780476Y-115839866D01*
X68780476Y-115839866D02*
X68732857Y-115792247D01*
X68732857Y-115792247D02*
X68637619Y-115744628D01*
X68637619Y-115744628D02*
X68447143Y-115697009D01*
X68447143Y-115697009D02*
X68351905Y-115649390D01*
X68351905Y-115649390D02*
X68304286Y-115601771D01*
X68304286Y-115601771D02*
X68256667Y-115506533D01*
X68256667Y-115506533D02*
X68256667Y-115411295D01*
X68256667Y-115411295D02*
X68304286Y-115316057D01*
X68304286Y-115316057D02*
X68351905Y-115268438D01*
X68351905Y-115268438D02*
X68447143Y-115220819D01*
X68447143Y-115220819D02*
X68685238Y-115220819D01*
X68685238Y-115220819D02*
X68828095Y-115268438D01*
X69161429Y-115220819D02*
X69399524Y-116220819D01*
X69399524Y-116220819D02*
X69590000Y-115506533D01*
X69590000Y-115506533D02*
X69780476Y-116220819D01*
X69780476Y-116220819D02*
X70018572Y-115220819D01*
X70828095Y-115220819D02*
X70637619Y-115220819D01*
X70637619Y-115220819D02*
X70542381Y-115268438D01*
X70542381Y-115268438D02*
X70494762Y-115316057D01*
X70494762Y-115316057D02*
X70399524Y-115458914D01*
X70399524Y-115458914D02*
X70351905Y-115649390D01*
X70351905Y-115649390D02*
X70351905Y-116030342D01*
X70351905Y-116030342D02*
X70399524Y-116125580D01*
X70399524Y-116125580D02*
X70447143Y-116173200D01*
X70447143Y-116173200D02*
X70542381Y-116220819D01*
X70542381Y-116220819D02*
X70732857Y-116220819D01*
X70732857Y-116220819D02*
X70828095Y-116173200D01*
X70828095Y-116173200D02*
X70875714Y-116125580D01*
X70875714Y-116125580D02*
X70923333Y-116030342D01*
X70923333Y-116030342D02*
X70923333Y-115792247D01*
X70923333Y-115792247D02*
X70875714Y-115697009D01*
X70875714Y-115697009D02*
X70828095Y-115649390D01*
X70828095Y-115649390D02*
X70732857Y-115601771D01*
X70732857Y-115601771D02*
X70542381Y-115601771D01*
X70542381Y-115601771D02*
X70447143Y-115649390D01*
X70447143Y-115649390D02*
X70399524Y-115697009D01*
X70399524Y-115697009D02*
X70351905Y-115792247D01*
X68226667Y-135313200D02*
X68369524Y-135360819D01*
X68369524Y-135360819D02*
X68607619Y-135360819D01*
X68607619Y-135360819D02*
X68702857Y-135313200D01*
X68702857Y-135313200D02*
X68750476Y-135265580D01*
X68750476Y-135265580D02*
X68798095Y-135170342D01*
X68798095Y-135170342D02*
X68798095Y-135075104D01*
X68798095Y-135075104D02*
X68750476Y-134979866D01*
X68750476Y-134979866D02*
X68702857Y-134932247D01*
X68702857Y-134932247D02*
X68607619Y-134884628D01*
X68607619Y-134884628D02*
X68417143Y-134837009D01*
X68417143Y-134837009D02*
X68321905Y-134789390D01*
X68321905Y-134789390D02*
X68274286Y-134741771D01*
X68274286Y-134741771D02*
X68226667Y-134646533D01*
X68226667Y-134646533D02*
X68226667Y-134551295D01*
X68226667Y-134551295D02*
X68274286Y-134456057D01*
X68274286Y-134456057D02*
X68321905Y-134408438D01*
X68321905Y-134408438D02*
X68417143Y-134360819D01*
X68417143Y-134360819D02*
X68655238Y-134360819D01*
X68655238Y-134360819D02*
X68798095Y-134408438D01*
X69131429Y-134360819D02*
X69369524Y-135360819D01*
X69369524Y-135360819D02*
X69560000Y-134646533D01*
X69560000Y-134646533D02*
X69750476Y-135360819D01*
X69750476Y-135360819D02*
X69988572Y-134360819D01*
X70274286Y-134360819D02*
X70893333Y-134360819D01*
X70893333Y-134360819D02*
X70560000Y-134741771D01*
X70560000Y-134741771D02*
X70702857Y-134741771D01*
X70702857Y-134741771D02*
X70798095Y-134789390D01*
X70798095Y-134789390D02*
X70845714Y-134837009D01*
X70845714Y-134837009D02*
X70893333Y-134932247D01*
X70893333Y-134932247D02*
X70893333Y-135170342D01*
X70893333Y-135170342D02*
X70845714Y-135265580D01*
X70845714Y-135265580D02*
X70798095Y-135313200D01*
X70798095Y-135313200D02*
X70702857Y-135360819D01*
X70702857Y-135360819D02*
X70417143Y-135360819D01*
X70417143Y-135360819D02*
X70321905Y-135313200D01*
X70321905Y-135313200D02*
X70274286Y-135265580D01*
X76774819Y-108314285D02*
X75774819Y-108314285D01*
X75774819Y-108314285D02*
X75774819Y-108076190D01*
X75774819Y-108076190D02*
X75822438Y-107933333D01*
X75822438Y-107933333D02*
X75917676Y-107838095D01*
X75917676Y-107838095D02*
X76012914Y-107790476D01*
X76012914Y-107790476D02*
X76203390Y-107742857D01*
X76203390Y-107742857D02*
X76346247Y-107742857D01*
X76346247Y-107742857D02*
X76536723Y-107790476D01*
X76536723Y-107790476D02*
X76631961Y-107838095D01*
X76631961Y-107838095D02*
X76727200Y-107933333D01*
X76727200Y-107933333D02*
X76774819Y-108076190D01*
X76774819Y-108076190D02*
X76774819Y-108314285D01*
X76774819Y-106790476D02*
X76774819Y-107361904D01*
X76774819Y-107076190D02*
X75774819Y-107076190D01*
X75774819Y-107076190D02*
X75917676Y-107171428D01*
X75917676Y-107171428D02*
X76012914Y-107266666D01*
X76012914Y-107266666D02*
X76060533Y-107361904D01*
X76774819Y-105838095D02*
X76774819Y-106409523D01*
X76774819Y-106123809D02*
X75774819Y-106123809D01*
X75774819Y-106123809D02*
X75917676Y-106219047D01*
X75917676Y-106219047D02*
X76012914Y-106314285D01*
X76012914Y-106314285D02*
X76060533Y-106409523D01*
X76454819Y-103551904D02*
X75454819Y-103551904D01*
X76454819Y-102980476D02*
X75883390Y-103409047D01*
X75454819Y-102980476D02*
X76026247Y-103551904D01*
X92184819Y-107838094D02*
X91184819Y-107838094D01*
X91184819Y-107838094D02*
X91184819Y-107599999D01*
X91184819Y-107599999D02*
X91232438Y-107457142D01*
X91232438Y-107457142D02*
X91327676Y-107361904D01*
X91327676Y-107361904D02*
X91422914Y-107314285D01*
X91422914Y-107314285D02*
X91613390Y-107266666D01*
X91613390Y-107266666D02*
X91756247Y-107266666D01*
X91756247Y-107266666D02*
X91946723Y-107314285D01*
X91946723Y-107314285D02*
X92041961Y-107361904D01*
X92041961Y-107361904D02*
X92137200Y-107457142D01*
X92137200Y-107457142D02*
X92184819Y-107599999D01*
X92184819Y-107599999D02*
X92184819Y-107838094D01*
X91613390Y-106695237D02*
X91565771Y-106790475D01*
X91565771Y-106790475D02*
X91518152Y-106838094D01*
X91518152Y-106838094D02*
X91422914Y-106885713D01*
X91422914Y-106885713D02*
X91375295Y-106885713D01*
X91375295Y-106885713D02*
X91280057Y-106838094D01*
X91280057Y-106838094D02*
X91232438Y-106790475D01*
X91232438Y-106790475D02*
X91184819Y-106695237D01*
X91184819Y-106695237D02*
X91184819Y-106504761D01*
X91184819Y-106504761D02*
X91232438Y-106409523D01*
X91232438Y-106409523D02*
X91280057Y-106361904D01*
X91280057Y-106361904D02*
X91375295Y-106314285D01*
X91375295Y-106314285D02*
X91422914Y-106314285D01*
X91422914Y-106314285D02*
X91518152Y-106361904D01*
X91518152Y-106361904D02*
X91565771Y-106409523D01*
X91565771Y-106409523D02*
X91613390Y-106504761D01*
X91613390Y-106504761D02*
X91613390Y-106695237D01*
X91613390Y-106695237D02*
X91661009Y-106790475D01*
X91661009Y-106790475D02*
X91708628Y-106838094D01*
X91708628Y-106838094D02*
X91803866Y-106885713D01*
X91803866Y-106885713D02*
X91994342Y-106885713D01*
X91994342Y-106885713D02*
X92089580Y-106838094D01*
X92089580Y-106838094D02*
X92137200Y-106790475D01*
X92137200Y-106790475D02*
X92184819Y-106695237D01*
X92184819Y-106695237D02*
X92184819Y-106504761D01*
X92184819Y-106504761D02*
X92137200Y-106409523D01*
X92137200Y-106409523D02*
X92089580Y-106361904D01*
X92089580Y-106361904D02*
X91994342Y-106314285D01*
X91994342Y-106314285D02*
X91803866Y-106314285D01*
X91803866Y-106314285D02*
X91708628Y-106361904D01*
X91708628Y-106361904D02*
X91661009Y-106409523D01*
X91661009Y-106409523D02*
X91613390Y-106504761D01*
X91864819Y-103551904D02*
X90864819Y-103551904D01*
X91864819Y-102980476D02*
X91293390Y-103409047D01*
X90864819Y-102980476D02*
X91436247Y-103551904D01*
X87024819Y-108314285D02*
X86024819Y-108314285D01*
X86024819Y-108314285D02*
X86024819Y-108076190D01*
X86024819Y-108076190D02*
X86072438Y-107933333D01*
X86072438Y-107933333D02*
X86167676Y-107838095D01*
X86167676Y-107838095D02*
X86262914Y-107790476D01*
X86262914Y-107790476D02*
X86453390Y-107742857D01*
X86453390Y-107742857D02*
X86596247Y-107742857D01*
X86596247Y-107742857D02*
X86786723Y-107790476D01*
X86786723Y-107790476D02*
X86881961Y-107838095D01*
X86881961Y-107838095D02*
X86977200Y-107933333D01*
X86977200Y-107933333D02*
X87024819Y-108076190D01*
X87024819Y-108076190D02*
X87024819Y-108314285D01*
X87024819Y-106790476D02*
X87024819Y-107361904D01*
X87024819Y-107076190D02*
X86024819Y-107076190D01*
X86024819Y-107076190D02*
X86167676Y-107171428D01*
X86167676Y-107171428D02*
X86262914Y-107266666D01*
X86262914Y-107266666D02*
X86310533Y-107361904D01*
X86024819Y-106171428D02*
X86024819Y-106076190D01*
X86024819Y-106076190D02*
X86072438Y-105980952D01*
X86072438Y-105980952D02*
X86120057Y-105933333D01*
X86120057Y-105933333D02*
X86215295Y-105885714D01*
X86215295Y-105885714D02*
X86405771Y-105838095D01*
X86405771Y-105838095D02*
X86643866Y-105838095D01*
X86643866Y-105838095D02*
X86834342Y-105885714D01*
X86834342Y-105885714D02*
X86929580Y-105933333D01*
X86929580Y-105933333D02*
X86977200Y-105980952D01*
X86977200Y-105980952D02*
X87024819Y-106076190D01*
X87024819Y-106076190D02*
X87024819Y-106171428D01*
X87024819Y-106171428D02*
X86977200Y-106266666D01*
X86977200Y-106266666D02*
X86929580Y-106314285D01*
X86929580Y-106314285D02*
X86834342Y-106361904D01*
X86834342Y-106361904D02*
X86643866Y-106409523D01*
X86643866Y-106409523D02*
X86405771Y-106409523D01*
X86405771Y-106409523D02*
X86215295Y-106361904D01*
X86215295Y-106361904D02*
X86120057Y-106314285D01*
X86120057Y-106314285D02*
X86072438Y-106266666D01*
X86072438Y-106266666D02*
X86024819Y-106171428D01*
X86704819Y-103551904D02*
X85704819Y-103551904D01*
X86704819Y-102980476D02*
X86133390Y-103409047D01*
X85704819Y-102980476D02*
X86276247Y-103551904D01*
X49136667Y-135313200D02*
X49279524Y-135360819D01*
X49279524Y-135360819D02*
X49517619Y-135360819D01*
X49517619Y-135360819D02*
X49612857Y-135313200D01*
X49612857Y-135313200D02*
X49660476Y-135265580D01*
X49660476Y-135265580D02*
X49708095Y-135170342D01*
X49708095Y-135170342D02*
X49708095Y-135075104D01*
X49708095Y-135075104D02*
X49660476Y-134979866D01*
X49660476Y-134979866D02*
X49612857Y-134932247D01*
X49612857Y-134932247D02*
X49517619Y-134884628D01*
X49517619Y-134884628D02*
X49327143Y-134837009D01*
X49327143Y-134837009D02*
X49231905Y-134789390D01*
X49231905Y-134789390D02*
X49184286Y-134741771D01*
X49184286Y-134741771D02*
X49136667Y-134646533D01*
X49136667Y-134646533D02*
X49136667Y-134551295D01*
X49136667Y-134551295D02*
X49184286Y-134456057D01*
X49184286Y-134456057D02*
X49231905Y-134408438D01*
X49231905Y-134408438D02*
X49327143Y-134360819D01*
X49327143Y-134360819D02*
X49565238Y-134360819D01*
X49565238Y-134360819D02*
X49708095Y-134408438D01*
X50041429Y-134360819D02*
X50279524Y-135360819D01*
X50279524Y-135360819D02*
X50470000Y-134646533D01*
X50470000Y-134646533D02*
X50660476Y-135360819D01*
X50660476Y-135360819D02*
X50898572Y-134360819D01*
X51755714Y-134360819D02*
X51279524Y-134360819D01*
X51279524Y-134360819D02*
X51231905Y-134837009D01*
X51231905Y-134837009D02*
X51279524Y-134789390D01*
X51279524Y-134789390D02*
X51374762Y-134741771D01*
X51374762Y-134741771D02*
X51612857Y-134741771D01*
X51612857Y-134741771D02*
X51708095Y-134789390D01*
X51708095Y-134789390D02*
X51755714Y-134837009D01*
X51755714Y-134837009D02*
X51803333Y-134932247D01*
X51803333Y-134932247D02*
X51803333Y-135170342D01*
X51803333Y-135170342D02*
X51755714Y-135265580D01*
X51755714Y-135265580D02*
X51708095Y-135313200D01*
X51708095Y-135313200D02*
X51612857Y-135360819D01*
X51612857Y-135360819D02*
X51374762Y-135360819D01*
X51374762Y-135360819D02*
X51279524Y-135313200D01*
X51279524Y-135313200D02*
X51231905Y-135265580D01*
%TO.C,D7*%
D13*
X69150000Y-104370000D02*
X69150000Y-105020000D01*
X69150000Y-109910000D02*
X69150000Y-109260000D01*
X70270000Y-105620000D02*
X68030000Y-105620000D01*
X70270000Y-105740000D02*
X68030000Y-105740000D01*
X70270000Y-105860000D02*
X68030000Y-105860000D01*
X68030000Y-105020000D02*
X70270000Y-105020000D01*
X70270000Y-109260000D01*
X68030000Y-109260000D01*
X68030000Y-105020000D01*
%TO.C,SW1*%
X80950000Y-77400000D02*
X81550000Y-77400000D01*
X81250000Y-77700000D02*
X80950000Y-77400000D01*
X81550000Y-77400000D02*
X81250000Y-77700000D01*
X82650000Y-75600000D02*
X82650000Y-87400000D01*
X86750000Y-75600000D02*
X82650000Y-75600000D01*
X86750000Y-87400000D02*
X82650000Y-87400000D01*
X88250000Y-81500000D02*
X89250000Y-81500000D01*
X88750000Y-81000000D02*
X88750000Y-82000000D01*
X90750000Y-75600000D02*
X94850000Y-75600000D01*
X94850000Y-75600000D02*
X94850000Y-78000000D01*
X94850000Y-80200000D02*
X94850000Y-82800000D01*
X94850000Y-85000000D02*
X94850000Y-87400000D01*
X94850000Y-87400000D02*
X90750000Y-87400000D01*
X91750000Y-81500000D02*
G75*
G02*
X85750000Y-81500000I-3000000J0D01*
G01*
X85750000Y-81500000D02*
G75*
G02*
X91750000Y-81500000I3000000J0D01*
G01*
%TO.C,SW4*%
X81735000Y-116655000D02*
X95705000Y-116655000D01*
X81735000Y-130625000D02*
X81735000Y-116655000D01*
X95705000Y-116655000D02*
X95705000Y-130625000D01*
X95705000Y-130625000D02*
X81735000Y-130625000D01*
%TO.C,D9*%
X79300000Y-104330000D02*
X79300000Y-104980000D01*
X79300000Y-109870000D02*
X79300000Y-109220000D01*
X80420000Y-105580000D02*
X78180000Y-105580000D01*
X80420000Y-105700000D02*
X78180000Y-105700000D01*
X80420000Y-105820000D02*
X78180000Y-105820000D01*
X78180000Y-104980000D02*
X80420000Y-104980000D01*
X80420000Y-109220000D01*
X78180000Y-109220000D01*
X78180000Y-104980000D01*
%TO.C,U2*%
X42000000Y-87630000D02*
X43380000Y-87630000D01*
X43380000Y-86250000D02*
X43380000Y-87630000D01*
X40500000Y-76440000D02*
X78500000Y-76440000D01*
X78500000Y-88440000D01*
X40500000Y-88440000D01*
X40500000Y-76440000D01*
%TO.C,SW2*%
X43475000Y-116665000D02*
X57445000Y-116665000D01*
X43475000Y-130635000D02*
X43475000Y-116665000D01*
X57445000Y-116665000D02*
X57445000Y-130635000D01*
X57445000Y-130635000D02*
X43475000Y-130635000D01*
%TO.C,SW7*%
X81725000Y-135795000D02*
X95695000Y-135795000D01*
X81725000Y-149765000D02*
X81725000Y-135795000D01*
X95695000Y-135795000D02*
X95695000Y-149765000D01*
X95695000Y-149765000D02*
X81725000Y-149765000D01*
%TO.C,D12*%
X94750000Y-104330000D02*
X94750000Y-104980000D01*
X94750000Y-109870000D02*
X94750000Y-109220000D01*
X95870000Y-105580000D02*
X93630000Y-105580000D01*
X95870000Y-105700000D02*
X93630000Y-105700000D01*
X95870000Y-105820000D02*
X93630000Y-105820000D01*
X93630000Y-104980000D02*
X95870000Y-104980000D01*
X95870000Y-109220000D01*
X93630000Y-109220000D01*
X93630000Y-104980000D01*
%TO.C,SW6*%
X62605000Y-116655000D02*
X76575000Y-116655000D01*
X62605000Y-130625000D02*
X62605000Y-116655000D01*
X76575000Y-116655000D02*
X76575000Y-130625000D01*
X76575000Y-130625000D02*
X62605000Y-130625000D01*
%TO.C,SW3*%
X62575000Y-135795000D02*
X76545000Y-135795000D01*
X62575000Y-149765000D02*
X62575000Y-135795000D01*
X76545000Y-135795000D02*
X76545000Y-149765000D01*
X76545000Y-149765000D02*
X62575000Y-149765000D01*
%TO.C,D11*%
X74200000Y-104330000D02*
X74200000Y-104980000D01*
X74200000Y-109870000D02*
X74200000Y-109220000D01*
X75320000Y-105580000D02*
X73080000Y-105580000D01*
X75320000Y-105700000D02*
X73080000Y-105700000D01*
X75320000Y-105820000D02*
X73080000Y-105820000D01*
X73080000Y-104980000D02*
X75320000Y-104980000D01*
X75320000Y-109220000D01*
X73080000Y-109220000D01*
X73080000Y-104980000D01*
%TO.C,D8*%
X89610000Y-104330000D02*
X89610000Y-104980000D01*
X89610000Y-109870000D02*
X89610000Y-109220000D01*
X90730000Y-105580000D02*
X88490000Y-105580000D01*
X90730000Y-105700000D02*
X88490000Y-105700000D01*
X90730000Y-105820000D02*
X88490000Y-105820000D01*
X88490000Y-104980000D02*
X90730000Y-104980000D01*
X90730000Y-109220000D01*
X88490000Y-109220000D01*
X88490000Y-104980000D01*
%TO.C,D10*%
X84450000Y-104330000D02*
X84450000Y-104980000D01*
X84450000Y-109870000D02*
X84450000Y-109220000D01*
X85570000Y-105580000D02*
X83330000Y-105580000D01*
X85570000Y-105700000D02*
X83330000Y-105700000D01*
X85570000Y-105820000D02*
X83330000Y-105820000D01*
X83330000Y-104980000D02*
X85570000Y-104980000D01*
X85570000Y-109220000D01*
X83330000Y-109220000D01*
X83330000Y-104980000D01*
%TO.C,SW5*%
X43485000Y-135795000D02*
X57455000Y-135795000D01*
X43485000Y-149765000D02*
X43485000Y-135795000D01*
X57455000Y-135795000D02*
X57455000Y-149765000D01*
X57455000Y-149765000D02*
X43485000Y-149765000D01*
%TD*%
%LPC*%
D14*
%TO.C,D7*%
X69150000Y-103330000D03*
D15*
X69150000Y-110950000D03*
%TD*%
D16*
%TO.C,SW1*%
X81250000Y-79000000D03*
D17*
X81250000Y-84000000D03*
X81250000Y-81500000D03*
D18*
X88750000Y-75900000D03*
X88750000Y-87100000D03*
D17*
X95750000Y-84000000D03*
X95750000Y-79000000D03*
%TD*%
D19*
%TO.C,SW4*%
X83640000Y-123640000D03*
D20*
X88720000Y-123640000D03*
D19*
X93800000Y-123640000D03*
D21*
X91260000Y-118560000D03*
X84910000Y-121100000D03*
%TD*%
D14*
%TO.C,D9*%
X79300000Y-103290000D03*
D15*
X79300000Y-110910000D03*
%TD*%
D22*
%TO.C,U2*%
X42000000Y-86250000D03*
D19*
X42000000Y-83710000D03*
X42000000Y-81170000D03*
X42000000Y-78630000D03*
%TD*%
%TO.C,SW2*%
X45380000Y-123650000D03*
D20*
X50460000Y-123650000D03*
D19*
X55540000Y-123650000D03*
D21*
X53000000Y-118570000D03*
X46650000Y-121110000D03*
%TD*%
D19*
%TO.C,SW7*%
X83630000Y-142780000D03*
D20*
X88710000Y-142780000D03*
D19*
X93790000Y-142780000D03*
D21*
X91250000Y-137700000D03*
X84900000Y-140240000D03*
%TD*%
D14*
%TO.C,D12*%
X94750000Y-103290000D03*
D15*
X94750000Y-110910000D03*
%TD*%
D19*
%TO.C,SW6*%
X64510000Y-123640000D03*
D20*
X69590000Y-123640000D03*
D19*
X74670000Y-123640000D03*
D21*
X72130000Y-118560000D03*
X65780000Y-121100000D03*
%TD*%
D19*
%TO.C,SW3*%
X64480000Y-142780000D03*
D20*
X69560000Y-142780000D03*
D19*
X74640000Y-142780000D03*
D21*
X72100000Y-137700000D03*
X65750000Y-140240000D03*
%TD*%
D14*
%TO.C,D11*%
X74200000Y-103290000D03*
D15*
X74200000Y-110910000D03*
%TD*%
D14*
%TO.C,D8*%
X89610000Y-103290000D03*
D15*
X89610000Y-110910000D03*
%TD*%
D14*
%TO.C,D10*%
X84450000Y-103290000D03*
D15*
X84450000Y-110910000D03*
%TD*%
D19*
%TO.C,SW5*%
X45390000Y-142780000D03*
D20*
X50470000Y-142780000D03*
D19*
X55550000Y-142780000D03*
D21*
X53010000Y-137700000D03*
X46660000Y-140240000D03*
%TD*%
D23*
%TO.C,U1*%
X61750000Y-94260000D03*
D24*
X61750000Y-96800000D03*
X61750000Y-99340000D03*
X61750000Y-101880000D03*
X61750000Y-104420000D03*
X61750000Y-106960000D03*
X61750000Y-109500000D03*
X44500000Y-109500000D03*
X44500000Y-106960000D03*
X44500000Y-104420000D03*
D25*
X44500000Y-101880000D03*
X44500000Y-99340000D03*
X44500000Y-96800000D03*
X44500000Y-94260000D03*
%TD*%
%LPD*%
M02*
